<svg xmlns="http://www.w3.org/2000/svg" xmlns:xlink="http://www.w3.org/1999/xlink" width="236" height="236" viewBox="0 0 236 236">
  <defs>
    <linearGradient id="linear-gradient" x1="0.523" y1="0.477" x2="0.826" y2="0.073" gradientUnits="objectBoundingBox">
      <stop offset="0" stop-color="#ffb657"/>
      <stop offset="1" stop-color="#ffefc9"/>
    </linearGradient>
  </defs>
  <g id="Group_22143" data-name="Group 22143" transform="translate(-842 -4688)">
    <circle id="Ellipse_25" data-name="Ellipse 25" cx="118" cy="118" r="118" transform="translate(842 4688)" fill="url(#linear-gradient)"/>
    <g id="Group_22126" data-name="Group 22126">
      <g id="cityscape" transform="translate(904 4759)">
        <path id="Path_733" data-name="Path 733" d="M75.657,45.236V20.024H50.087V0H19.343V24.4L0,34.2V95H95V45.236ZM69.781,25.9V89.124H50.087V25.9ZM44.21,5.876V89.124H25.219V5.876ZM5.876,37.809,19.343,30.99V89.124H5.876ZM89.124,89.124H75.657V51.113H89.124Z" fill="#1a295b" stroke="#ffb759" stroke-width="2"/>
      </g>
      <circle id="Ellipse_27" data-name="Ellipse 27" cx="21" cy="21" r="21" transform="translate(970.424 4771.894)" fill="#f3bf82"/>
    </g>
    <g id="_3028692271535694869" data-name="3028692271535694869" transform="translate(960.5 4761.5)">
      <path id="Path_729" data-name="Path 729" d="M31.4,56.309a24.452,24.452,0,0,0,15.9-5.8L66.635,69.837a2.266,2.266,0,0,0,3.2,0,2.266,2.266,0,0,0,0-3.2L50.51,47.308a24.864,24.864,0,1,0-19.106,9Zm0-45.28A20.376,20.376,0,1,1,11.028,31.4,20.4,20.4,0,0,1,31.4,11.028Z" transform="translate(0 0)" fill="#1a295b" stroke="#f3be81" stroke-width="0.5"/>
    </g>
  </g>
</svg>
